<svg xmlns="http://www.w3.org/2000/svg" viewBox="0 0 20 20" fill="currentColor">
  <!-- Cloud -->
  <path d="M14 7c.55 0 1 .45 1 1 0 .17-.04.33-.12.47C15.47 8.88 16 9.86 16 11c0 1.66-1.34 3-3 3H6c-1.66 0-3-1.34-3-3 0-1.53 1.14-2.79 2.62-2.97C5.87 6.84 7.29 6 9 6c1.4 0 2.6.71 3.32 1.78.23-.11.49-.17.76-.17h.92z"/>
  <!-- Download Arrow -->
  <path d="M10 9l-3 3h2v3h2v-3h2l-3-3z"/>
  <!-- Clock (small, bottom right) -->
  <circle cx="15.5" cy="15.5" r="3" fill="currentColor"/>
  <circle cx="15.5" cy="15.5" r="2.5" fill="none" stroke="white" stroke-width="0.5"/>
  <path d="M15.5 13.5v2h1.5" stroke="white" stroke-width="0.5" fill="none"/>
</svg>
